<?xml version="1.0" encoding="UTF-8"?>
<svg xmlns="http://www.w3.org/2000/svg" width="996" height="257" viewBox="0 0 996 257" fill="none">
  <path d="M128.943 256.083L86.6758 213.817L128.943 171.551L128.943 256.083ZM128.943 60.9111L31.3578 158.497L0.90114 128.04L128.943 -0.00232837L128.943 60.9111ZM128.943 146.687L74.2455 201.384L43.7888 170.928L128.943 85.7737V146.687ZM146.348 256.082V195.169L213.476 128.04L146.348 60.9111L146.348 -0.00232837L274.39 128.04L146.348 256.082Z" fill="white"></path>
  <path fill-rule="evenodd" clip-rule="evenodd" d="M867.894 56.082C890.112 56.082 908.935 63.4897 923.841 78.0674C938.707 92.6452 946.26 110.73 946.26 131.809C946.26 153.045 938.707 171.208 923.841 185.786C908.975 200.364 890.152 207.771 867.894 207.771C845.635 207.771 826.772 200.364 811.906 185.786C797.04 171.169 789.487 153.005 789.487 131.809C789.487 110.73 797.04 92.6846 811.906 78.0674C826.812 63.4896 845.635 56.0821 867.894 56.082ZM868.134 81.7705C854.347 81.7705 842.637 86.6964 833.326 96.3887C823.975 106.12 819.26 118.019 819.26 131.769C819.26 145.558 824.015 157.497 833.326 167.269C842.637 177 854.347 181.965 868.134 181.965C881.761 181.965 893.35 177.04 902.581 167.269C911.812 157.498 916.528 145.56 916.568 131.73C916.568 117.941 911.892 106.042 902.621 96.3496C893.35 86.6967 881.761 81.7706 868.134 81.7705Z" fill="white"></path>
  <path d="M442.112 83.2988H361.56V115.75H429.593V139.815H361.56V204H333.37V59H442.112V83.2988Z" fill="white"></path>
  <path d="M593.561 83.2988H542.693V204H514.503V83.2988H463.637V59H593.561V83.2988Z" fill="white"></path>
  <path fill-rule="evenodd" clip-rule="evenodd" d="M969.412 19.5137C974.137 19.5137 976.263 20.2518 978.074 21.2998C979.452 22.3478 980.514 24.2882 980.515 26.6943C980.515 29.4115 978.389 31.5086 975.357 32.4014V32.7119C977.798 33.6047 979.138 35.39 979.886 38.6504C980.634 42.3765 981.105 43.8914 981.695 44.7842H975.475C974.727 43.8914 974.255 41.6391 973.507 38.8057C973.074 36.1277 971.538 34.9239 968.35 34.9238H965.633V44.8223H959.845V20.252C962.128 19.825 965.318 19.5137 969.412 19.5137ZM968.979 23.5508C967.483 23.5508 966.38 23.7061 965.79 23.8613V30.8867H968.507C971.696 30.8867 974.294 29.839 974.294 27.2773C974.294 25.0648 972.64 23.5508 968.979 23.5508Z" fill="white"></path>
  <path fill-rule="evenodd" clip-rule="evenodd" d="M969.573 7.40625C984.022 7.40655 995.084 18.3136 995.084 31.9766C995.084 45.8727 983.983 56.819 969.573 56.8193C955.282 56.8193 943.902 45.9117 943.902 31.9766C943.903 18.3522 955.282 7.40625 969.573 7.40625ZM969.573 12.374C958.471 12.374 950.282 21.1858 950.281 31.9766C950.281 42.884 958.51 51.5791 969.73 51.5791C980.675 51.5788 988.707 42.8846 988.707 32.1328C988.707 21.2256 980.675 12.3743 969.573 12.374Z" fill="white"></path>
  <path d="M692.392 112.077L643.717 59H615.777V204H643.966V100.148L692.195 148.426L740.503 100.148V203.785H768.692V59H740.752L692.392 112.077Z" fill="white"></path>
</svg>
